<svg width="86" height="86" viewBox="0 0 86 86" fill="none" xmlns="http://www.w3.org/2000/svg">
<g clip-path="url(#clip0_8_89)">
<path fill-rule="evenodd" clip-rule="evenodd" d="M43 9.46C43 4.23539 38.7646 0 33.54 0H9.46C4.23539 0 0 4.23538 0 9.46V33.8493C0 39.074 4.23539 43.3092 9.46 43.3092H33.54C38.7646 43.3092 43 47.5447 43 52.7692V76.54C43 81.7645 47.2355 86 52.46 86H76.54C81.7645 86 86 81.7645 86 76.54V52.1504C86 46.9259 81.7645 42.6906 76.54 42.6906H52.46C47.2355 42.6906 43 38.4552 43 33.2306V9.46Z" fill="#092635"/>
</g>
<defs>
<clipPath id="clip0_8_89">
<rect width="86" height="86" fill="white"/>
</clipPath>
</defs>
</svg>
